<?xml version="1.0" standalone="no"?>
<!DOCTYPE svg PUBLIC "-//W3C//DTD SVG 20010904//EN"
 "http://www.w3.org/TR/2001/REC-SVG-20010904/DTD/svg10.dtd">
<svg version="1.0" xmlns="http://www.w3.org/2000/svg"
 width="512.000000pt" height="512.000000pt" viewBox="0 0 512.000000 512.000000"
 preserveAspectRatio="xMidYMid meet">

<g transform="translate(0.000000,512.000000) scale(0.100000,-0.100000)"
fill="#000000" stroke="none">
<path d="M2188 5104 c-172 -41 -317 -186 -363 -359 -13 -50 -15 -146 -15 -596
l0 -536 -88 -75 c-216 -184 -365 -438 -428 -730 -25 -116 -25 -380 0 -496 63
-292 212 -546 428 -730 l88 -75 0 -536 c0 -589 1 -598 61 -711 60 -113 195
-216 319 -244 85 -20 635 -23 722 -5 166 35 308 159 370 325 22 58 23 68 26
619 l4 560 75 60 c87 71 200 200 267 309 58 93 126 246 126 284 0 37 -26 71
-66 88 -29 12 -39 12 -66 1 -43 -18 -50 -27 -87 -118 -100 -240 -302 -450
-544 -564 -347 -164 -759 -127 -1081 95 -86 59 -224 199 -278 281 -249 377
-249 841 -1 1216 21 32 75 97 121 145 327 340 823 431 1249 228 108 -51 189
-107 280 -193 102 -97 165 -183 224 -307 28 -58 56 -116 62 -130 7 -14 29 -33
49 -43 33 -16 40 -16 71 -4 41 18 67 52 67 89 0 38 -68 191 -126 284 -67 109
-180 238 -267 309 l-75 60 -4 560 c-3 551 -4 561 -26 619 -62 166 -204 290
-370 325 -80 17 -651 13 -724 -5z m742 -215 c70 -33 116 -79 149 -149 l26 -55
3 -479 c3 -390 1 -478 -10 -473 -109 46 -156 62 -246 84 -95 24 -127 27 -282
28 -216 0 -326 -20 -507 -93 l-53 -22 0 464 c0 499 2 517 54 596 31 48 106
100 166 117 32 9 130 12 345 10 300 -2 300 -2 355 -28z m-755 -3561 c160 -51
386 -71 546 -49 109 16 249 53 323 85 32 14 60 26 63 26 2 0 3 -215 1 -477
l-3 -478 -26 -55 c-34 -70 -80 -116 -149 -149 l-55 -26 -320 0 c-318 0 -320 0
-369 24 -63 31 -122 90 -150 150 -20 45 -21 59 -24 528 l-3 483 53 -21 c29
-12 80 -30 113 -41z"/>
<path d="M1865 2947 c-86 -29 -153 -84 -193 -161 -23 -44 -27 -63 -27 -136 0
-133 11 -149 253 -392 l207 -208 50 0 49 0 203 203 c237 238 258 270 258 397
0 62 -6 86 -28 132 -54 111 -152 172 -277 172 -65 1 -84 -3 -141 -31 l-66 -33
-60 31 c-71 36 -164 47 -228 26z m173 -241 c90 -83 130 -88 200 -22 59 54 81
66 127 66 75 0 119 -86 81 -158 -8 -15 -77 -89 -153 -164 l-138 -138 -147 148
c-81 81 -152 160 -158 176 -24 64 30 136 102 136 32 0 47 -8 86 -44z"/>
<path d="M2793 2918 c-30 -15 -56 -72 -48 -107 3 -16 17 -39 31 -52 l26 -24
283 0 283 0 26 24 c47 44 44 112 -8 153 -19 16 -50 18 -296 17 -173 0 -283 -4
-297 -11z"/>
<path d="M3704 2650 c-55 -22 -72 -108 -31 -155 14 -17 36 -28 63 -32 36 -5
46 -1 75 25 28 25 34 37 34 72 0 72 -72 118 -141 90z"/>
<path d="M2793 2588 c-30 -15 -56 -72 -48 -107 3 -16 17 -39 31 -52 l26 -24
283 0 283 0 26 24 c47 44 44 112 -8 153 -19 16 -50 18 -296 17 -173 0 -283 -4
-297 -11z"/>
<path d="M2793 2258 c-30 -15 -56 -72 -48 -107 3 -16 17 -39 31 -52 l26 -24
283 0 283 0 26 24 c47 44 44 112 -8 153 -19 16 -50 18 -296 17 -173 0 -283 -4
-297 -11z"/>
</g>
</svg>
